<?xml version="1.0" encoding="utf-8"?>
<!-- Generator: Adobe Illustrator 22.1.0, SVG Export Plug-In . SVG Version: 6.00 Build 0)  -->
<svg version="1.1" id="Layer_1" xmlns="http://www.w3.org/2000/svg" xmlns:xlink="http://www.w3.org/1999/xlink" x="0px" y="0px"
	 viewBox="0 0 180 180" style="enable-background:new 0 0 180 180;" xml:space="preserve">
<g>
	<path d="M139.1,109c0,0.1,0,0.2,0,0.2v7.2H41V109h0.3c2.2-0.1,4.3-0.5,6.4-1.2c8.6-2.7,15.3-9.8,17.5-18.6c0.6-2.4,0.8-4.9,0.8-7.4
		C65.5,70.7,58,61,47.3,57.8c-1.6-0.5-3.3-0.8-4.9-1c-0.4,0-0.7-0.1-1.1-0.1H41c-0.1-0.1-0.1-0.3-0.1-0.4v-6.9c0.1,0,0.1,0,0.2,0
		c4.2,0.2,8.2,1.2,12,2.9c9.4,4.2,16.3,12.5,18.9,22.4c0.4,1.7,0.7,3.4,0.9,5.2c0.1,1.3,0.2,2.5,0.1,3.8
		c-0.2,9.6-4.4,18.3-11.3,24.4c-0.3,0.2-0.5,0.5-0.8,0.7l0.1,0.1h57.7c-0.1-0.1-0.2-0.2-0.2-0.3c-0.8-0.7-1.5-1.3-2.2-2.1
		c-4.5-4.6-7.4-9.9-8.8-16.2c-0.4-1.5-0.6-3.1-0.7-4.6c-0.1-1.7-0.2-3.4,0-5c0.3-4.5,1.4-8.7,3.4-12.7c4.1-8.2,11.3-14.4,20.1-17.1
		c1.7-0.5,3.5-0.9,5.2-1.2c1-0.1,2-0.3,3-0.3c0.2,0,0.3,0,0.5,0v7.4c-2.3,0-4.1,0.5-6,1c-8.2,2.4-14.8,8.8-17.4,16.9
		c-0.6,2-1.1,4-1.2,6c-0.1,1.3-0.1,2.6,0,3.8c0.3,4.9,1.9,9.5,4.8,13.5c3.8,5.3,9,8.8,15.4,10.4C136.1,108.7,137.6,108.9,139.1,109z
		"/>
	<path d="M37.8,109c0.3,0,0.6,0.1,1,0.1v7.4c-0.2,0-0.3,0-0.4,0c-0.8-0.1-1.7-0.1-2.5-0.2c-1.7-0.2-3.4-0.5-5.1-1
		c-8.3-2.4-14.7-7.3-19.3-14.6c-2.2-3.4-3.6-7.2-4.4-11.2c-0.6-2.3-0.8-4.8-0.8-7.2c0.2-9.8,4.5-18.6,11.6-24.8
		c4.1-3.6,8.8-6,14.1-7.3c1.6-0.4,3.1-0.7,4.7-0.8c0.5,0,1-0.1,1.4-0.1h0.7v7.4c-0.1,0.1-0.3,0.1-0.4,0.1c-2.2,0.1-4.3,0.5-6.3,1.1
		c-8.7,2.7-15.4,9.9-17.6,18.7c-0.7,2.7-0.9,5.4-0.7,8.1c0.8,11.3,8.7,20.4,19,23.4C34.4,108.6,36.1,108.9,37.8,109z"/>
	<path d="M141.3,109c0.1,0,0.3,0,0.5,0c1.8-0.1,3.6-0.4,5.4-0.9c6.8-1.8,12.9-6.5,16.4-13.2c1.3-2.5,2.2-5.2,2.6-8
		c0.3-2.1,0.4-4.1,0.2-6.2c-0.6-7-3.6-12.8-8.8-17.5c-3.3-2.9-7.1-4.9-11.5-5.9c-1.4-0.3-2.8-0.5-4.3-0.6c-0.1,0-0.3,0-0.5,0v-7.4
		c0.1,0,0.1,0,0.2,0c0.2,0,0.3,0,0.5,0c0.5,0,1,0.1,1.5,0.1c1.6,0.1,3.2,0.4,4.7,0.8c8,2,14.4,6.3,19.3,12.9c3,4,4.9,8.6,5.8,13.5
		c0.2,1.1,0.4,2.1,0.4,3.2c0,0.1,0.1,0.2,0.1,0.4v5.4c0,0.1-0.1,0.3-0.1,0.4c-0.1,1.4-0.3,2.8-0.6,4.2c-1.4,6.3-4.4,11.8-8.9,16.4
		c-4.4,4.4-9.5,7.4-15.5,8.9c-1.7,0.4-3.4,0.7-5.1,0.9c-0.7,0.1-1.6,0.2-2.3,0.1c0,0,0,0,0,0V109z"/>
	<path d="M101.4,127.8c-0.1,0.5-0.1,1.2,0,1.6c0.1,0,0.2,0,0.3,0c0.7,0,1.5,0,2.2,0c0.1,0,0.2,0,0.4,0c0.3,0,0.5,0.2,0.5,0.5
		s-0.1,0.5-0.5,0.6c-0.1,0-0.2,0-0.3,0c-1,0-2.1,0-3.1,0c-0.2,0-0.3,0-0.5,0c-0.3,0-0.4-0.2-0.5-0.5c0-0.1,0-0.3,0-0.4
		c0-1.5,0-3,0-4.4c0-0.1,0-0.3,0-0.4c0.1-0.3,0.2-0.5,0.5-0.5c0.1,0,0.2,0,0.3,0c1.1,0,2.1,0,3.2,0c0.1,0,0.2,0,0.3,0
		c0.2,0,0.4,0.3,0.4,0.5s-0.2,0.5-0.4,0.5c-0.1,0-0.3,0-0.4,0c-0.7,0-1.5,0-2.2,0c-0.1,0-0.2,0-0.4,0c-0.1,0.5,0,0.9,0,1.3
		c0.1,0.2,0.3,0.1,0.4,0.1c0.7,0,1.3,0,2,0c0.1,0,0.3,0,0.4,0c0.2,0,0.4,0.2,0.4,0.4c0,0.2-0.1,0.5-0.3,0.5
		c-0.1,0.1-0.3,0.1-0.5,0.1c-0.6,0-1.3,0-1.9,0C101.7,127.8,101.6,127.8,101.4,127.8z"/>
	<path d="M169.9,126.7c0.2,0.1,0.3,0.1,0.5,0.1c0.6,0,1.2,0,1.9,0c0.1,0,0.3,0,0.4,0c0.2,0,0.4,0.2,0.4,0.4c0,0.2-0.1,0.4-0.3,0.5
		c-0.1,0-0.3,0.1-0.5,0.1c-0.6,0-1.3,0-1.9,0c-0.1,0-0.3,0-0.4,0c0,0.5,0,1.1,0,1.6c0.1,0,0.3,0,0.4,0c0.8,0,1.5,0,2.3,0
		c0.1,0,0.3,0,0.4,0c0.3,0,0.4,0.3,0.4,0.5s-0.1,0.4-0.4,0.5c-0.1,0-0.3,0-0.4,0.1c-1,0-2.1,0-3.1,0c-0.1,0-0.2,0-0.4,0
		c-0.3,0-0.5-0.2-0.5-0.5c0-0.1,0-0.2,0-0.4c0-1.5,0-2.9,0-4.4c0-0.1,0-0.3,0-0.4c0.1-0.3,0.3-0.5,0.6-0.5c0.1,0,0.2,0,0.3,0
		c1,0,2.1,0,3.1,0c0.1,0,0.2,0,0.3,0c0.2,0,0.4,0.2,0.4,0.5s-0.2,0.5-0.4,0.5c-0.1,0-0.3,0-0.4,0c-0.7,0-1.4,0-2,0
		c-0.2,0-0.3,0-0.5,0c-0.1,0.2-0.1,0.5-0.1,0.7C169.9,126.3,169.9,126.5,169.9,126.7z"/>
	<path d="M56,124.2c0.5,0,0.9,0,1.3,0.2c0.3,0.1,0.6,0.3,0.8,0.6c0.2,0.2,0.3,0.5,0.2,0.7c0,0.4-0.3,0.6-0.7,0.6
		c-0.1,0-0.3-0.1-0.3-0.2c-0.1-0.1-0.2-0.3-0.2-0.4c-0.4-0.6-1.1-0.8-1.7-0.4c-0.1,0-0.1,0.1-0.2,0.1c-0.2,0.2-0.2,0.6,0,0.8
		c0.2,0.1,0.4,0.2,0.6,0.3c0.3,0.1,0.7,0.2,1,0.3c0.3,0.1,0.5,0.2,0.8,0.3c1.4,0.6,1.2,2.4,0.4,3c-0.2,0.2-0.4,0.3-0.7,0.4
		c-0.8,0.3-1.5,0.3-2.3,0c-0.6-0.2-1-0.6-1.2-1.2c-0.1-0.2-0.1-0.4-0.1-0.6c0-0.3,0.2-0.4,0.4-0.5s0.5,0,0.6,0.2
		c0.1,0.1,0.1,0.2,0.1,0.2c0,0.1,0.1,0.2,0.1,0.3c0.2,0.4,0.4,0.6,0.8,0.7c0.4,0.1,0.9,0.1,1.2-0.2c0.5-0.3,0.5-1-0.1-1.2
		c-0.2-0.1-0.5-0.2-0.7-0.2c-0.3-0.1-0.7-0.2-1-0.3c-0.2-0.1-0.4-0.2-0.6-0.3c-0.6-0.3-0.9-0.8-0.8-1.4c0-0.6,0.3-1.1,0.9-1.4
		c0.3-0.2,0.6-0.3,0.9-0.3C55.7,124.2,55.9,124.2,56,124.2z"/>
	<path d="M79.2,124.2c0.4,0,0.8,0.1,1.2,0.2c0.3,0.1,0.6,0.3,0.8,0.6c0.2,0.2,0.3,0.5,0.2,0.7c0,0.3-0.2,0.5-0.4,0.6
		c-0.3,0.1-0.5,0-0.7-0.2c-0.1-0.1-0.1-0.2-0.2-0.4c-0.2-0.4-0.6-0.6-1-0.6c-0.3,0-0.6,0-0.8,0.2c-0.4,0.3-0.4,0.7,0,0.9
		c0.2,0.1,0.3,0.2,0.5,0.2c0.3,0.1,0.7,0.2,1,0.3c0.3,0.1,0.5,0.2,0.8,0.3c1.4,0.6,1.2,2.3,0.4,3c-0.2,0.2-0.5,0.4-0.8,0.5
		c-0.7,0.2-1.5,0.2-2.2,0c-0.6-0.2-1-0.6-1.3-1.1c-0.1-0.2-0.1-0.4-0.1-0.6c0-0.3,0.2-0.4,0.4-0.5c0.2-0.1,0.5,0,0.6,0.2
		c0.1,0.1,0.1,0.2,0.1,0.2c0,0.1,0.1,0.2,0.1,0.3c0.2,0.5,0.6,0.7,1.1,0.7c0.4,0,0.7-0.1,1-0.3c0.4-0.3,0.3-0.8-0.1-1.1
		c-0.1-0.1-0.2-0.1-0.4-0.2c-0.2-0.1-0.3-0.1-0.5-0.1c-0.3-0.1-0.6-0.2-0.9-0.3c-0.2-0.1-0.5-0.2-0.7-0.3c-1-0.7-0.9-2.1,0-2.7
		c0.3-0.2,0.7-0.3,1-0.4C78.8,124.2,79,124.2,79.2,124.2z"/>
	<path d="M33.9,129.1c-0.8,0-1.6,0-2.4,0c-0.1,0.1-0.2,0.3-0.2,0.5c-0.1,0.3-0.2,0.5-0.3,0.8c-0.2,0.3-0.4,0.4-0.7,0.3
		c-0.3-0.1-0.5-0.4-0.4-0.8c0-0.1,0.1-0.3,0.1-0.4c0.6-1.5,1.2-3,1.8-4.5c0-0.1,0.1-0.2,0.2-0.3c0.3-0.7,1.3-0.7,1.7,0
		c0.1,0.1,0.1,0.2,0.2,0.4c0.6,1.4,1.2,2.9,1.7,4.3c0.1,0.2,0.1,0.4,0.2,0.6c0.1,0.2,0,0.5-0.2,0.6c-0.3,0.3-0.7,0.2-1-0.1
		c-0.1-0.2-0.2-0.4-0.3-0.7C34.1,129.5,34,129.3,33.9,129.1z M31.9,128c0.4,0.1,1.2,0.1,1.6,0v-0.1c0-0.1,0-0.1-0.1-0.2
		c-0.2-0.6-0.4-1.2-0.7-1.8l0,0c0,0,0,0-0.1,0C32.4,126.5,32.1,127.2,31.9,128C31.9,127.9,31.9,127.9,31.9,128z"/>
	<path d="M7.6,127.5c0,0.4,0,0.7,0.2,1.1c0.4,1,1.4,1.2,2,0.9c0.4-0.1,0.6-0.4,0.8-0.8c0.1-0.1,0.1-0.3,0.2-0.4
		c0.1-0.3,0.4-0.3,0.7-0.3c0.2,0.1,0.4,0.3,0.4,0.5c0,0.1,0,0.2,0,0.4c-0.3,0.9-0.9,1.4-1.7,1.7c-0.6,0.2-1.2,0.1-1.8,0
		c-0.6-0.2-1-0.5-1.4-1c-0.5-0.8-0.7-1.6-0.6-2.6c0-0.4,0.1-0.8,0.3-1.2c0.5-1,1.3-1.5,2.3-1.6c0.8-0.1,1.5,0.1,2.1,0.5
		c0.4,0.3,0.7,0.7,0.8,1.2c0,0.2,0,0.3-0.1,0.5c-0.2,0.4-0.7,0.4-0.9,0.1c-0.1-0.1-0.1-0.2-0.2-0.3c-0.1-0.1-0.1-0.2-0.2-0.3
		c-0.6-1-2-0.9-2.6,0.1c-0.2,0.4-0.3,0.8-0.3,1.2C7.6,127.4,7.6,127.4,7.6,127.5z"/>
	<path d="M147.2,125.4c-0.4,0-0.8,0-1.2,0c-0.1,0-0.2,0-0.4,0c-0.3-0.1-0.5-0.3-0.5-0.6c0-0.3,0.2-0.5,0.5-0.5c0.1,0,0.2,0,0.3,0
		c1.3,0,2.5,0,3.8,0c0.1,0,0.2,0,0.4,0s0.4,0.2,0.4,0.5s-0.1,0.5-0.3,0.5c-0.1,0-0.3,0.1-0.4,0.1c-0.3,0-0.6,0-0.9,0
		c-0.1,0-0.2,0-0.3,0c-0.1,0.2,0,0.4,0,0.5c0,1.2,0,2.4,0,3.6c0,0.2,0,0.4,0,0.6c-0.1,0.3-0.3,0.5-0.6,0.5s-0.6-0.2-0.6-0.5
		c0-0.2,0-0.3,0-0.5c0-1.2,0-2.5,0-3.7C147.2,125.8,147.2,125.6,147.2,125.4z"/>
	<path d="M124.5,125.4c-0.1,0-0.2,0-0.3,0c-0.3,0-0.6,0-0.9,0c-0.1,0-0.2,0-0.4-0.1c-0.2-0.1-0.4-0.3-0.4-0.5c0-0.3,0.2-0.5,0.4-0.5
		c0.1,0,0.2,0,0.3,0c1.3,0,2.6,0,3.8,0c0.1,0,0.2,0,0.3,0c0.2,0,0.4,0.2,0.4,0.5s-0.1,0.5-0.3,0.5c-0.1,0-0.3,0.1-0.5,0.1
		c-0.4,0-0.8,0-1.1,0c-0.1,0.2-0.1,0.3-0.1,0.5c0,1.2,0,2.5,0,3.7c0,0.2,0,0.3,0,0.5c0,0.4-0.3,0.6-0.7,0.6c-0.3,0-0.6-0.2-0.6-0.6
		c0-0.2,0-0.3,0-0.5c0-1.2,0-2.5,0-3.7C124.5,125.8,124.5,125.6,124.5,125.4z"/>
</g>
</svg>
